# xmcd
#
# Track frame offsets:
#	150
#	11319
#	25755
#	34061
#	51897
#	63479
#	76607
#	86482
#	98914
#	106438
#	118105
#	131100
#	146055
#	154283
#	169557
#	186590
#	197179
#	211829
#	225305
#	237479
#	252243
#	265232
#	281736
#	300353
#	317006
#
# Disc length: 4405 seconds
#
# Revision: 0
# Processed by: cddbd v1.5.2PL0 Copyright (c) Steve Scherf et al.
# Submitted via: EasyCDDAExtractor 16.0.6.1
#
DISCID=58113319
DTITLE=Γιοβάννα - Σε σάς-Γιοβάννα
DYEAR=2003
DGENRE=Ποικίλη
TTITLE0=Αν θυμηθείς τ' όνειρό μου
TTITLE1=Τι κρίμα
TTITLE2=Χόρεψαν τ' άσπρα πουλιά
TTITLE3=Μυρτιά
TTITLE4=Καλοκαιράκι
TTITLE5=Θυμήσου τον Σεπτέμβρη
TTITLE6=Ήρθες αγάπη μου παλιά
TTITLE7=Έλα μαζί μου
TTITLE8=Λιναρντό
TTITLE9=Το καφενεδάκι
TTITLE10=Ομπρέλες του Χερβούργου
TTITLE11=Ποιος να σφυρίζει κάθε βράδυ
TTITLE12=Τι να πω;
TTITLE13=Από σένα αρχίζουν όλα
TTITLE14=Τάχα ποιος ξέρει να μού πει
TTITLE15=Cosa importa
TTITLE16=Non, a jamais sans toi
TTITLE17=Du, du my darling
TTITLE18=Αν σ' αρνηθώ
TTITLE19=Άγριο πουλί
TTITLE20=Ανοιξιάτικο βραδάκι
TTITLE21=Viens viens
TTITLE22=This is my song
TTITLE23=Ο μικρός τυμπανιστής
TTITLE24=Dbilissi
EXTD=
EXTT0=
EXTT1=
EXTT2=
EXTT3=
EXTT4=
EXTT5=
EXTT6=
EXTT7=
EXTT8=
EXTT9=
EXTT10=
EXTT11=
EXTT12=
EXTT13=
EXTT14=
EXTT15=
EXTT16=
EXTT17=
EXTT18=
EXTT19=
EXTT20=
EXTT21=
EXTT22=
EXTT23=
EXTT24=
PLAYORDER=
